<?xml version="1.0" encoding="utf-8"?>
<!-- Generator: Adobe Illustrator 24.0.1, SVG Export Plug-In . SVG Version: 6.00 Build 0)  -->
<svg version="1.1" id="new" xmlns="http://www.w3.org/2000/svg" xmlns:xlink="http://www.w3.org/1999/xlink" x="0px" y="0px"
	 viewBox="0 0 559.62 146.41" style="enable-background:new 0 0 559.62 146.41;" xml:space="preserve">
<style type="text/css">
	.st0{fill:#CC0000;}
</style>
<g>
	<path d="M322.32,73.83h14.08v70.55h-14.08v-9.86c-4.69,5.27-13.49,11.9-27.76,11.9c-20.53,0-39.49-12.58-39.49-37.4
		c0-24.31,18.77-36.89,39.49-36.89c15.64,0,24.05,7.48,27.76,11.73V73.83z M269.53,109.01c0,15.13,9.77,26.52,26.59,26.52
		c17.2,0,26.98-12.41,26.98-26.35C323.1,91,308.63,83,296.12,83C282.24,83,269.53,91.84,269.53,109.01z"/>
	<path d="M372.76,73.83h14.08v7.48c4.5-5.78,11.53-9.18,20.14-9.18c14.66,0,20.53,9.01,22.09,11.39
		c7.82-10.71,18.96-11.39,24.44-11.39c24.05,0,26.39,17.51,26.39,27.54v44.71h-14.08v-42.84c0-7.99-1.17-18.53-14.47-18.53
		c-16.23,0-17.99,13.6-17.99,22.1v39.27h-14.08v-41.82c0-4.93,0.2-19.55-14.66-19.55c-16.03,0-17.79,14.45-17.79,22.95v38.42h-14.08
		V73.83z"/>
	<path d="M530.52,73.83v70.55h-14.08V73.83H530.52z"/>
	<path class="st0" d="M523.75,55.97c2.85,0,5.28-1.01,7.31-3.04c2.02-2.02,3.04-4.43,3.04-7.21c0-2.85-1.01-5.25-3.04-7.21
		c-2.03-1.96-4.46-2.94-7.31-2.94c-2.66,0-5,1.03-7.02,3.08c-2.03,2.06-3.04,4.41-3.04,7.07c0,2.72,1.01,5.11,3.04,7.16
		C518.75,54.94,521.09,55.97,523.75,55.97z"/>
	<path class="st0" d="M239.33,129.89L39.52,133.7L0,144.84h245.59C245.59,144.84,241.45,134.69,239.33,129.89z"/>
	<path class="st0" d="M221.78,119.49l2.71,5.84h12.43c-1.32-2.89-2.71-5.86-4.05-8.63L68.28,98.1l-50.51,26.15l41.48-15.04
		l110.95,7.01l3.39,9.11h24.73l-3.1-7.52L221.78,119.49z"/>
	<polygon class="st0" points="225.34,102.02 185.5,92.96 182.86,93.66 181.98,92.16 89.88,71.2 35.45,106.98 82.74,80.27 
		159.85,94.18 163.5,101.39 188.91,104.82 185.96,99.03 213.79,103.67 216.38,108.53 229.7,110.33 	"/>
	<polygon class="st0" points="130.2,48.36 134.14,54.09 164.93,65.55 156.72,53.15 117.07,36.55 70.59,74.55 112.75,42.25 	"/>
	<polygon class="st0" points="217.39,88.23 188.12,78.33 177.36,84.67 174.34,79.99 189.24,71.17 195.63,73.3 198.88,78.18 
		214.86,84.15 209.35,75.71 189.94,67.39 173.65,78.91 169.15,71.92 106.27,50.66 55.91,87.91 101.42,56.86 144.47,69.42 
		150.07,78.08 177.52,85.36 178.37,86.5 187.32,83.01 205.24,88.38 208.24,93.5 222.7,97.33 	"/>
	<polygon class="st0" points="151.93,46.41 147.36,40.06 183.76,56.92 188.29,62.91 206.04,70.92 197.08,58.83 126.78,23.22 
		90.05,56.45 120.37,32.12 	"/>
	<polygon class="st0" points="169.76,39.99 174.86,45.91 194.62,55.72 187.45,47.07 132.4,14.8 104.04,41.63 129.7,19.09 	"/>
	<polygon class="st0" points="155.06,24.31 159.65,28.9 184.4,43.51 174.49,32.57 135.94,9.63 118.36,26.13 134.39,12.07 	"/>
	<polygon class="st0" points="140.92,10.05 145.07,14.08 170.42,28.33 162.07,19.85 137.9,6.42 129.13,14.8 137.05,7.83 	"/>
	<polygon class="st0" points="158.26,16.09 152.04,10.12 139.95,2.8 135.24,8.09 138.66,5.11 	"/>
	<polygon class="st0" points="147.67,5.91 141.38,0 138.7,2.95 140.55,1.65 	"/>
	<g>
		<path d="M546.91,74.66v6.66h-1.72v-6.66h-1.98v-1.34h5.68v1.34H546.91z"/>
		<path d="M550.89,73.32h1.24l2.34,5.08l2.44-5.08h1.24l1.48,8h-1.74l-0.79-4.93l-2.36,4.93h-0.58l-2.26-4.93l-0.9,4.93h-1.74
			L550.89,73.32z"/>
	</g>
</g>
</svg>
