<svg xmlns="http://www.w3.org/2000/svg" width="265.75" height="92.125"><defs><clipPath id="a"><path d="M0 0h2125.98v737H0V0z"/></clipPath></defs><g fill="#333333" clip-path="url(#a)" transform="matrix(1.25,0,0,-1.25,0,92.125) scale(0.1,0.1)"><path d="M767.738 400.668c0 11.625-.226 30.086-36.238 30.086-6.156 0-20.742-.914-33.734-5.926-11.625-4.558-12.309-7.066-12.309-10.031 0-2.051.684-5.926 4.785-20.512 10.031 7.977 22.34 12.992 35.328 12.992 8.891 0 10.942-4.101 10.942-12.308v-4.559c-31.227-2.281-54.246-12.082-54.246-38.062 0-11.168 5.242-31.91 33.05-31.91 15.27 0 23.02 5.695 27.352 8.886 1.367-8.66 6.609-8.886 7.293-8.886 3.191 0 4.102.226 26.668 11.167-4.332 4.102-8.891 8.661-8.891 24.618v44.445zm-31.226-50.828c-1.824-2.508-5.469-7.524-13.446-7.524-6.382 0-10.941 3.875-10.941 10.942 0 14.133 18.234 15.269 24.387 15.726V349.84zm84.035 79.547l-30.77-7.524c2.735-7.976 4.332-12.078 4.332-42.164v-19.832c0-25.984-1.824-30.543-4.558-37.152h40.57c-3.422 8.207-4.558 13.449-4.558 37.152v34.192c3.191 3.187 7.066 7.293 15.953 7.293 4.332 0 6.609-.914 9.347-1.825l5.242 18.235c1.137 3.875 1.368 6.152 1.368 7.293 0 5.468-7.067 5.699-9.801 5.699-12.082 0-19.149-6.84-25.074-12.535l-2.051 11.168zm130.828-28.719c0 11.625-.23 30.086-36.242 30.086-6.153 0-20.742-.914-33.731-5.926-11.625-4.558-12.308-7.066-12.308-10.031 0-2.051.683-5.926 4.785-20.512 10.027 7.977 22.336 12.992 35.328 12.992 8.891 0 10.941-4.101 10.941-12.308v-4.559c-31.226-2.281-54.246-12.082-54.246-38.062 0-11.168 5.243-31.91 33.047-31.91 15.274 0 23.024 5.695 27.352 8.886 1.367-8.66 6.613-8.886 7.297-8.886 3.187 0 4.101.226 26.664 11.167-4.328 4.102-8.887 8.661-8.887 24.618v44.445zm-31.227-50.828c-1.824-2.508-5.468-7.524-13.449-7.524-6.379 0-10.937 3.875-10.937 10.942 0 14.133 18.234 15.269 24.386 15.726V349.84zm160.692 78.863c-4.33-.683-13.68-2.281-28.72-2.281-6.38 0-7.75.23-19.6 2.965-5.47 1.136-10.71 1.367-14.36 1.367-35.101 0-44.445-21.199-44.445-36.926 0-7.976 2.051-19.371 15.726-28.262-4.332-2.281-12.992-6.839-12.992-18.461 0-2.507.231-11.855 11.625-16.183-11.625-4.789-18.918-12.082-18.918-24.16 0-27.809 37.614-28.492 46.494-28.492 25.3 0 56.53 8.89 56.53 35.328 0 27.351-27.35 29.402-50.37 30.316-9.8.227-16.87.684-16.87 7.52 0 6.609 5.47 6.609 15.5 6.609 13.68 0 23.93 1.598 32.6 9.348 6.83 5.925 10.71 15.269 10.71 25.07 0 4.559-.91 7.523-2.51 12.535 1.6-.226 3.65-.453 7.06-.453 3.65 0 7.75 0 9.12 6.609l3.42 17.551zm-46.72-34.418c0-14.586-8.89-18.461-15.05-18.461-2.96 0-14.81 1.137-14.81 17.778 0 13.218 7.52 18.691 15.5 18.691 14.36 0 14.36-14.816 14.36-18.008zm-14.59-72.711c6.84 0 23.7 0 23.7-9.801 0-8.66-12.3-11.851-24.84-11.851-18.01 0-20.515 7.293-20.515 10.484 0 8.664 12.995 11.168 21.655 11.168zm117.23 109.18c-32.37 0-54.02-16.184-54.02-54.93 0-40.574 27.58-54.933 54.02-54.933 22.79 0 53.79 11.625 53.79 54.933 0 34.188-17.32 54.93-53.79 54.93zm0-25.984c16.87 0 21.2-13.903 21.2-28.946 0-14.816-4.1-28.949-21.2-28.949-14.59 0-21.42 10.031-21.42 28.949 0 14.586 4.1 28.946 21.42 28.946m-550.565-66.536c0 17.106-11.254 31.586-26.746 36.454-4.961 88.398-55.57 164.574-128.644 205.406.578 2.636.902 5.367.902 8.179 0 21.086-17.098 38.184-38.184 38.184-14.453 0-27.019-8.023-33.511-19.855-16.699 3.492-33.996 5.347-51.735 5.347-138.945 0-251.5856-112.64-251.5856-251.57 0-39.399 9.0703-76.668 25.2109-109.863-7.1328-6.938-11.5781-16.618-11.5781-27.348 0-21.098 17.1172-38.184 38.2188-38.184 5.738 0 11.156 1.301 16.039 3.571 45.91-49.063 111.199-79.766 183.695-79.766 118.274 0 217.426 81.609 244.344 191.578 18.902 2.281 33.574 18.356 33.574 37.867zM139.641 201.07c4.437 6.239 7.074 13.852 7.074 22.098 0 5.023-.996 9.809-2.758 14.203l60.594 58.512c20.16-32.145 54.597-54.496 94.554-58.035 4.309-16.371 19.18-28.473 36.918-28.473 21.075 0 38.172 17.109 38.172 38.184 0 2.367-.242 4.675-.656 6.921 35.645 20.93 59.859 59 61.32 102.829l75.477-24.981c1.648-10.531 7.559-19.648 15.961-25.473-27.625-98.414-117.934-170.593-225.149-170.593-62.66 0-119.515 24.687-161.507 64.808zm158.168 46.489c0-.231.031-.454.035-.68-58.067 2.711-104.418 49.629-105.828 107.766 2.664-.586 5.425-.918 8.265-.918 12.438 0 23.446 5.972 30.41 15.179l32.743-3.625c-.059-.879-.133-1.758-.133-2.652 0-21.078 17.109-38.164 38.195-38.164 1.586 0 3.141.129 4.68.316l5.539-47.761c-8.492-7.008-13.906-17.606-13.906-29.461zM216.328 426.52c20.383 25.312 51.656 41.562 86.781 41.562 23.188 0 44.704-7.078 62.524-19.16-4.281-6.168-6.805-13.649-6.805-21.723 0-3.699.551-7.265 1.535-10.648l-28.715-30.535c-6.988 9-17.878 14.808-30.152 14.808-14.918 0-27.812-8.578-34.098-21.054l-29.136 14.628c-.93 14.254-9.602 26.387-21.934 32.122zm160.508-31.68c5.863-3.66 12.769-5.813 20.199-5.813 4.211 0 8.25.711 12.039 1.969 3.403-10.617 5.266-21.914 5.266-33.652 0-36.864-18.164-69.422-45.988-89.551-6.383 10.176-17.422 17.07-30.125 17.805l-21.407 42.086c13.457 5.902 22.868 19.316 22.868 34.945 0 4.449-.801 8.703-2.196 12.672l39.344 19.539zm-9.344 165.543l-18.293-80.973c-12.242 4.008-25.312 6.188-38.902 6.188-43.59 0-81.93-22.274-104.223-55.989-1.894.289-3.816.485-5.793.485-21.109 0-38.207-17.106-38.207-38.184 0-15.93 9.762-29.57 23.637-35.297.836-21.562 7.297-41.644 17.805-59.019l-76.668-40.918c-5.438 2.976-11.672 4.676-18.305 4.676-4.648 0-9.086-.872-13.2071-2.391-17.914 33.086-28.0937 70.973-28.0937 111.242 0 129.164 104.7268 233.883 233.9058 233.883 19.071 0 37.586-2.336 55.332-6.645-.726-2.941-1.156-6.003-1.156-9.168 0-11.015 4.699-20.918 12.168-27.89zm167.457-186.289c-8.062-2.946-14.777-8.574-19.258-15.739l-80.73 1.985c.004.383.039.754.039 1.137 0 15-2.676 29.382-7.574 42.695 4.863 6.406 7.781 14.367 7.781 23.027 0 21.078-17.094 38.188-38.172 38.188-5.101 0-9.957-1.02-14.406-2.832-9.34 6.636-19.672 11.949-30.68 15.843l40.797 71.727c.262-.004.516-.039.777-.039 13.641 0 25.579 7.184 32.332 17.941 64.563-40.781 107.754-112.25 109.094-193.933m163.66-240.879v62.137l11.25-62.137h8.438l11.25 62.137v-62.137h11.25v78.75h-15.559l-11.16-60.293-11.164 60.293h-15.555v-78.75h11.25zm79.114 61.875l5.625-33.75h-11.25l5.625 33.75zm-11.25-61.875l4.218 19.687h14.063l4.219-19.687h11.25l-16.875 78.75h-11.25l-16.875-78.75h11.25zm59.429 0v25.312l5.625 11.25 14.063-36.562h14.062l-19.734 47.812 16.922 30.938h-14.063l-16.875-33.75v33.75h-11.25v-78.75h11.25zm57.758 0v78.75h-11.25v-78.75h11.25zm31.391 0v52.383l20.125-52.383h8v78.75h-11.25v-48.692l-19.688 48.692h-8.437v-78.75h11.25zm79.816 8.437l2.813-8.437h8.44V172.5h-22.503v-8.348h11.25v-2.812c0-2.258-.078-4.262-.238-6.02-.164-1.757-.477-3.531-.945-5.32-.469-1.785-1.106-3.258-1.914-4.414-.805-1.16-1.895-2.102-3.274-2.836-1.375-.73-3.004-1.098-4.879-1.098-1.582 0-2.98.243-4.195.727-1.215.48-2.227 1.184-3.031 2.109-.805.922-1.481 1.953-2.024 3.098-.539 1.141-.949 2.496-1.23 4.062-.278 1.567-.477 3.106-.594 4.618-.117 1.507-.176 3.199-.176 5.074v25.312c0 2.547.176 4.782.528 6.703.351 1.918.945 3.676 1.781 5.274.836 1.594 2.035 2.812 3.605 3.644 1.567.836 3.492 1.254 5.778 1.254 1.668 0 3.113-.242 4.328-.726 1.215-.481 2.191-1.125 2.922-1.934.734-.804 1.312-1.851 1.738-3.14.422-1.289.715-2.602.879-3.934.16-1.332.254-2.922.285-4.77v-2.371h11.249c0 1.082-.01 1.891-.05 2.418-.14 3.719-.64 6.993-1.49 9.821-.85 2.828-2.11 5.297-3.78 7.406-1.667 2.109-3.851 3.711-6.546 4.812-2.696 1.098-5.875 1.645-9.535 1.645-15.293 0-22.942-9.637-22.942-28.914v-19.953c0-3.926.192-7.395.574-10.414.379-3.016 1.067-5.887 2.063-8.614.996-2.722 2.332-4.964 4-6.722 1.672-1.758 3.832-3.149 6.484-4.176 2.649-1.023 5.778-1.539 9.379-1.539 5.305 0 9.055 3.078 11.25 9.23zm85.763-8.437v8.437h-19.68v28.125h14.06v8.438h-14.06v25.312h19.68v8.438h-30.93v-78.75h30.93zm21.73 0l11.16 33.75 11.16-33.75h11.16l-13.88 41 14.06 37.75h-11.25l-11.25-30.938-11.25 30.938h-11.25l14.06-37.926-13.97-40.824h11.25zm59.64 70.312h2.82c2.87 0 5.18-.214 6.92-.636 1.74-.426 3.16-1.196 4.26-2.309 1.1-1.113 1.86-2.543 2.27-4.285.41-1.742.61-4.02.61-6.832 0-2.317-.27-4.219-.81-5.715-.55-1.492-1.44-2.641-2.68-3.449-1.25-.805-2.68-1.356-4.31-1.649-1.63-.293-3.71-.437-6.26-.437H1162v25.312zm0-70.312v36.562h8.44c6.36 0 11.23 1.676 14.61 5.032 3.39 3.355 5.08 8.238 5.08 14.656 0 15-6.56 22.5-19.69 22.5h-19.69v-78.75H1162zm73.54 0v8.437h-19.69v28.125h14.06v8.438h-14.06v25.312h19.69v8.438h-30.94v-78.75h30.94zm26.25 70.312h2.81c4.69 0 8.2-.988 10.55-2.964 2.34-1.981 3.51-5.211 3.51-9.692 0-4.484-1.17-7.711-3.51-9.691-2.35-1.977-5.86-2.965-10.55-2.965h-2.81v25.312zm0-70.312v36.562h8.44l11.34-36.562h11.16l-12.66 39.375c3.22 1.172 5.67 3.34 7.34 6.504 1.67 3.164 2.5 7.09 2.5 11.777 0 7.559-2.12 12.965-6.37 16.215-4.25 3.254-10.56 4.879-18.94 4.879h-14.06v-78.75h11.25zm57.32 0v78.75h-11.25v-78.75h11.25zm51.08 0v8.437h-19.69v28.125h14.06v8.438h-14.06v25.312h19.69v8.438h-30.94v-78.75h30.94zm26.25 0v52.383l20.12-52.383h8v78.75h-11.25v-48.692l-19.68 48.692h-8.44v-78.75h11.25zm77.6 1.055c2.73 1.23 4.9 3.023 6.5 5.382 1.6 2.36 2.75 5.075 3.47 8.153.72 3.074 1.08 6.648 1.08 10.722v2.813h-11.25v-2.813c0-1.933-.06-3.632-.18-5.097-.12-1.465-.37-2.973-.77-4.528-.39-1.55-.93-2.828-1.62-3.824-.69-.996-1.64-1.816-2.84-2.461-1.2-.644-2.63-.965-4.3-.965s-3.13.313-4.38.946c-1.24.629-2.24 1.457-2.98 2.48-.75 1.027-1.36 2.293-1.83 3.805-.47 1.508-.78 3.023-.94 4.547-.16 1.523-.25 3.222-.25 5.097v28.125c0 2.168.06 3.993.18 5.473.12 1.477.37 2.992.77 4.547.39 1.551.96 2.789 1.69 3.715.74.922 1.75 1.676 3.06 2.261 1.3.586 2.86.879 4.68.879 1.4 0 2.63-.152 3.69-.461 1.05-.308 1.92-.793 2.61-1.449.69-.66 1.26-1.379 1.71-2.156.46-.773.81-1.75 1.04-2.922.23-1.172.39-2.305.48-3.406.09-1.098.15-2.422.18-3.977v-2.504h11.25c0 1.172-.02 2.036-.05 2.594-.14 3.719-.62 6.973-1.42 9.754-.81 2.785-2.01 5.23-3.61 7.34-1.6 2.109-3.72 3.707-6.39 4.789-2.67 1.086-5.83 1.625-9.49 1.625-3.31 0-6.23-.469-8.75-1.406-2.52-.938-4.58-2.227-6.2-3.868-1.61-1.64-2.92-3.695-3.93-6.171-1.01-2.477-1.72-5.121-2.13-7.934-.41-2.812-.62-5.992-.62-9.535v-22.457c0-3.543.21-6.723.62-9.535.41-2.813 1.12-5.457 2.13-7.934 1.01-2.476 2.32-4.539 3.93-6.195 1.62-1.656 3.68-2.953 6.2-3.891 2.52-.933 5.44-1.406 8.75-1.406 3.86 0 7.17.617 9.91 1.848zm57.56-1.055v8.437h-19.69v28.125h14.06v8.438h-14.06v25.312h19.69v8.438h-30.94v-78.75h30.94zm72.31 0v8.437h-19.68v28.125h14.06v8.438h-14.06v25.312h19.68v8.438h-30.93v-78.75h30.93zm21.73 0l11.16 33.75 11.16-33.75h11.17l-13.89 41 14.06 37.75h-11.25l-11.25-30.938-11.25 30.938h-11.25l14.06-37.926-13.97-40.824h11.25zm79.33 0v8.437h-19.68v28.125h14.06v8.438h-14.06v25.312h19.68v8.438h-30.93v-78.75h30.93zm45.13 1.055c2.74 1.23 4.9 3.023 6.5 5.382 1.6 2.36 2.76 5.075 3.47 8.153.72 3.074 1.08 6.648 1.08 10.722v2.813h-11.25v-2.813c0-1.933-.06-3.632-.18-5.097-.11-1.465-.37-2.973-.77-4.528-.39-1.55-.93-2.828-1.62-3.824-.69-.996-1.63-1.816-2.84-2.461-1.2-.644-2.63-.965-4.3-.965s-3.13.313-4.38.946c-1.24.629-2.24 1.457-2.99 2.48-.74 1.027-1.35 2.293-1.82 3.805-.46 1.508-.78 3.023-.94 4.547-.17 1.523-.24 3.222-.24 5.097v28.125c0 2.168.06 3.993.17 5.473.12 1.477.37 2.992.77 4.547.4 1.551.96 2.789 1.69 3.715.73.922 1.75 1.676 3.06 2.261 1.3.586 2.86.879 4.68.879 1.4 0 2.63-.152 3.69-.461 1.05-.308 1.92-.793 2.61-1.449.69-.66 1.26-1.379 1.72-2.156.45-.773.79-1.75 1.03-2.922.23-1.172.4-2.305.48-3.406.09-1.098.15-2.422.18-3.977v-2.504h11.25c0 1.172-.02 2.036-.04 2.594-.15 3.719-.63 6.973-1.43 9.754-.81 2.785-2.01 5.23-3.61 7.34-1.59 2.109-3.73 3.707-6.39 4.789-2.67 1.086-5.83 1.625-9.49 1.625-3.31 0-6.23-.469-8.75-1.406-2.52-.938-4.58-2.227-6.19-3.868-1.62-1.64-2.93-3.695-3.94-6.171-1.01-2.477-1.72-5.121-2.13-7.934-.41-2.812-.61-5.992-.61-9.535v-22.457c0-3.543.2-6.723.61-9.535.41-2.813 1.12-5.457 2.13-7.934 1.01-2.476 2.32-4.539 3.94-6.195 1.61-1.656 3.67-2.953 6.19-3.891 2.52-.933 5.44-1.406 8.75-1.406 3.86 0 7.17.617 9.91 1.848zm63.99 3.273c1.69 1.625 3.06 3.668 4.11 6.129 1.06 2.461 1.8 5.121 2.25 7.976.43 2.86.66 6.086.66 9.692v50.625h-11.25V161.34c0-2.434-.06-4.469-.16-6.11-.1-1.64-.37-3.39-.81-5.25-.44-1.863-1.05-3.347-1.83-4.46-.77-1.114-1.87-2.036-3.29-2.77-1.42-.73-3.14-1.098-5.16-1.098-2.03 0-3.75.368-5.17 1.098-1.42.734-2.52 1.656-3.3 2.77-.77 1.113-1.38 2.597-1.82 4.46-.44 1.86-.71 3.61-.81 5.25-.1 1.641-.15 3.676-.15 6.11v50.625h-11.25V161.34c0-3.606.21-6.832.65-9.692.44-2.855 1.19-5.515 2.24-7.976 1.06-2.461 2.43-4.504 4.11-6.129 1.69-1.625 3.84-2.895 6.44-3.801 2.61-.906 5.63-1.363 9.06-1.363 3.42 0 6.44.457 9.05 1.363 2.61.906 4.75 2.176 6.43 3.801zm45.39-4.328v68.73h14.07v10.02h-39.38v-10.02h14.06v-68.73h11.25zm44.18 61.875l5.63-33.75h-11.25l5.62 33.75zm-11.25-61.875l4.22 19.687h14.06l4.22-19.687h11.25l-16.87 78.75h-11.25l-16.88-78.75h11.25zm59.43 70.312c1.99 0 3.53-.015 4.61-.043 1.09-.031 2.44-.109 4.07-.242 1.62-.133 2.88-.344 3.76-.637.88-.292 1.85-.71 2.92-1.253 1.07-.543 1.87-1.207 2.39-2 .53-.789.98-1.778 1.37-2.965.38-1.188.57-2.559.57-4.11 0-9.375-4.69-14.062-14.07-14.062h-5.62v25.312zm0-33.75h5.62c4.87 0 8.43-1.121 10.68-3.363 2.26-2.238 3.39-5.809 3.39-10.699 0-4.895-1.13-8.461-3.39-10.699-2.25-2.243-5.81-3.364-10.68-3.364h-5.62v28.125zm8.44-36.562c6.94 0 12.43 2.015 16.45 6.043 4.03 4.027 6.05 9.512 6.05 16.457 0 5.566-1.17 9.851-3.52 12.855-2.34 3-5.86 5.278-10.55 6.832 4.34 1.2 7.55 3.082 9.63 5.649 2.08 2.562 3.12 6.304 3.12 11.226 0 3.399-.58 6.371-1.74 8.922-1.15 2.547-2.81 4.598-4.96 6.153-2.15 1.55-4.67 2.707-7.54 3.468-2.87.762-6.12 1.145-9.76 1.145h-16.87v-78.75h19.69zm69.71 0v8.437h-19.69v70.313h-11.25v-78.75h30.94zm44.26 0v8.437h-19.68v28.125h14.06v8.438h-14.06v25.312h19.68v8.438h-30.93v-78.75h30.93"/></g></svg>