<?xml version="1.0" encoding="UTF-8"?> <svg xmlns="http://www.w3.org/2000/svg" width="160" height="87" viewBox="0 0 160 87"><defs><clipPath id="g1xga"><path d="M58.66.56h19.227v54.091H58.66z"></path></clipPath><clipPath id="g1xgb"><path d="M85.59 14.08h16.533v40.569H85.59z"></path></clipPath><clipPath id="g1xgc"><path d="M52.3 22.19h34.741v10.818H52.3z"></path></clipPath><clipPath id="g1xgd"><path d="M38.53 65.09h20.066v21.335H38.53z"></path></clipPath><clipPath id="g1xge"><path d="M57.8 65.09h19.435v21.336H57.8z"></path></clipPath><clipPath id="g1xgf"><path d="M78.27 65.09h27.718v21.336H78.27z"></path></clipPath><clipPath id="g1xgg"><path d="M102.23 65.09h19.435v21.336H102.23z"></path></clipPath><clipPath id="g1xgh"><path d="M129.23 74.63h11.047v11.79H129.23z"></path></clipPath><clipPath id="g1xgi"><path d="M142.42 65.22h17.536v21.066H142.42z"></path></clipPath></defs><g><g><g><g><g></g><g clip-path="url(#g1xga)"><path fill="#075ba9" d="M77.782 6.904l-8.66 43.483a5.287 5.287 0 0 1-5.179 4.264c-3.333 0-5.832-3.062-5.179-6.344l8.66-43.483A5.288 5.288 0 0 1 72.604.56c3.332 0 5.832 3.061 5.178 6.344"></path></g></g><g><g></g><g clip-path="url(#g1xgb)"><path fill="#075ba9" d="M102.019 20.424l-5.967 29.962a5.288 5.288 0 0 1-5.18 4.263c-3.332 0-5.831-3.063-5.178-6.345l5.966-29.96a5.288 5.288 0 0 1 5.18-4.264c3.333 0 5.832 3.062 5.179 6.344"></path></g></g><g><path fill="#fcb61a" d="M109.862 49.239c0 2.987-2.412 5.409-5.386 5.409-2.975 0-5.386-2.422-5.386-5.41 0-2.987 2.411-5.408 5.386-5.408 2.974 0 5.386 2.421 5.386 5.409"></path></g><g><path fill="#e92c2f" d="M104.922 5.99c0 2.987-2.412 5.408-5.386 5.408-2.975 0-5.386-2.421-5.386-5.409 0-2.987 2.411-5.409 5.386-5.409 2.974 0 5.386 2.422 5.386 5.41"></path></g><g><g></g><g clip-path="url(#g1xgc)"><path fill="#e92c2f" d="M57.525 22.19h24.238c3.333 0 5.833 3.061 5.179 6.344l-.042.21a5.287 5.287 0 0 1-5.18 4.264H57.484c-3.332 0-5.832-3.062-5.179-6.344l.042-.21a5.287 5.287 0 0 1 5.18-4.264"></path></g></g></g><g><g><path fill="#1c242b" d="M5.206 84.115a2.637 2.637 0 0 1-.923 1.654c-.999.859-2.48.856-3.224-.017-.372-.44-.522-1.007-.435-1.637L2.938 67.42a2.714 2.714 0 0 1 .873-1.635c.994-.91 2.502-.913 3.26-.017.383.45.536 1.021.449 1.652z"></path></g><g><path fill="#1c242b" d="M17.746 84.115a2.637 2.637 0 0 1-.923 1.654c-.998.859-2.48.856-3.224-.017-.372-.44-.522-1.007-.435-1.637l2.314-16.694a2.714 2.714 0 0 1 .873-1.635c.994-.91 2.502-.913 3.26-.017.383.45.536 1.021.449 1.652z"></path></g><g><path fill="#1c242b" d="M11.225 73.43c.633 0 1.163.243 1.535.704.723.89.513 2.393-.471 3.27a2.55 2.55 0 0 1-1.708.67H3.753c-.615 0-1.14-.225-1.523-.654-.776-.88-.566-2.408.442-3.304.506-.45 1.102-.686 1.724-.686z"></path></g><g><path fill="#1c242b" d="M33.452 86.286h-10.7c-.625 0-1.153-.231-1.523-.671-.372-.44-.522-1.006-.435-1.637l2.277-16.42c.086-.628.39-1.193.876-1.64.497-.457 1.094-.698 1.725-.698h10.7c.606 0 1.12.229 1.484.659.365.426.514.978.429 1.597a2.546 2.546 0 0 1-.887 1.598 2.51 2.51 0 0 1-1.647.63h-8.396l-.526 3.794h7.435c.601 0 1.112.225 1.48.654.368.435.517.987.432 1.604a2.535 2.535 0 0 1-.89 1.598 2.494 2.494 0 0 1-1.643.627h-7.436l-.53 3.822h8.397c.603 0 1.116.229 1.483.66.365.427.514.98.428 1.598a2.548 2.548 0 0 1-.885 1.596 2.515 2.515 0 0 1-1.648.63"></path></g><g><g></g><g clip-path="url(#g1xgd)"><path fill="#1c242b" d="M53.677 86.425c-.731 0-1.334-.341-1.696-.96L48 79.305l-5.654 6.212c-.72.754-1.431.908-1.906.908-.59 0-1.094-.228-1.459-.659l-.003-.004c-.362-.431-.509-.973-.427-1.565a2.7 2.7 0 0 1 .652-1.413l6.612-7.027-4.598-6.94c-.268-.446-.353-.921-.28-1.448a2.64 2.64 0 0 1 .874-1.625c.761-.68 1.862-.854 2.696-.408.312.172.55.398.718.675l3.916 6.137 5.647-6.207c.77-.957 2.498-1.154 3.33-.21.384.432.54.988.454 1.61a2.567 2.567 0 0 1-.598 1.314l-6.634 7.073 4.645 6.996c.258.341.366.838.288 1.393a2.686 2.686 0 0 1-.86 1.622 2.53 2.53 0 0 1-1.737.686"></path></g></g><g><g></g><g clip-path="url(#g1xge)"><path fill="#1c242b" d="M73.407 86.052a1.982 1.982 0 0 1-.721-1.017l-.977-3.587H64.07l-1.949 3.549c-.267.453-.6.795-1.014 1.047-1.023.62-2.251.467-2.874-.303l-.002-.002c-.351-.44-.493-.998-.406-1.62.04-.294.153-.608.347-.962l9.068-16.293c.288-.5.651-.909 1.09-1.225a2.82 2.82 0 0 1 1.696-.549h.265c.62 0 1.14.184 1.54.544.354.325.603.731.748 1.213l4.553 16.304c.099.36.125.674.084.968a2.697 2.697 0 0 1-.855 1.62 2.554 2.554 0 0 1-1.742.688 2.03 2.03 0 0 1-1.212-.375zm-6.892-9.026h3.969L69.17 72.16z"></path></g></g><g><g></g><g clip-path="url(#g1xgf)"><path fill="#1c242b" d="M95.35 86.426a2.32 2.32 0 0 1-2.33-1.994L91.21 73.945l-4.726 10.5a3.342 3.342 0 0 1-1.174 1.42c-1.066.74-2.395.727-3.218.033-.4-.336-.67-.808-.802-1.405l-2.978-16.328a2.867 2.867 0 0 1-.023-.794c.049-.594.345-1.178.848-1.626.876-.786 2.295-.886 3.086-.13.325.31.537.719.62 1.213l1.861 11.527 5.068-11.469a3.008 3.008 0 0 1 1.093-1.304c.987-.657 2.207-.655 3.003-.002.404.332.659.789.739 1.32l1.885 11.455 5.054-11.52c.223-.501.55-.91.972-1.226.971-.744 2.376-.654 3.041.141.376.443.51 1.027.383 1.681-.019.157-.093.404-.214.694l-7.505 16.33c-.315.632-.715 1.105-1.206 1.443a2.936 2.936 0 0 1-1.667.528"></path></g></g><g><g></g><g clip-path="url(#g1xgg)"><path fill="#1c242b" d="M117.837 86.052a1.982 1.982 0 0 1-.721-1.017l-.977-3.587h-7.637l-1.95 3.549c-.268.453-.601.795-1.015 1.047-1.025.62-2.251.467-2.874-.303l-.002-.002c-.351-.44-.493-.998-.406-1.62.04-.294.153-.608.347-.962l9.068-16.293c.288-.5.651-.909 1.09-1.225a2.838 2.838 0 0 1 1.696-.549h.265c.62 0 1.14.184 1.54.544.354.325.603.731.748 1.213l4.553 16.304c.099.36.125.674.084.968a2.697 2.697 0 0 1-.855 1.62 2.554 2.554 0 0 1-1.742.688 2.03 2.03 0 0 1-1.212-.375zm-6.887-9.026h3.96l-1.31-4.866z"></path></g></g><g><g></g><g clip-path="url(#g1xgh)"><path fill="#1c242b" d="M137.656 86.42c-.732 0-1.332-.34-1.695-.959l-6.731-10.778 5.365-.053 5.37 8.09c.17.22.386.684.288 1.392a2.695 2.695 0 0 1-.855 1.62 2.535 2.535 0 0 1-1.742.689"></path></g></g><g><path fill="#1c242b" d="M123.858 85.751c-.37-.437-.521-1.004-.434-1.638l2.296-16.557a2.709 2.709 0 0 1 .874-1.639c.497-.456 1.094-.697 1.725-.697h6.218c2.664 0 4.643.593 5.883 1.763 1.296 1.22 1.813 2.844 1.54 4.82-.233 1.67-1.552 7.124-8.79 7.124h-4.447l-.719 5.186a2.636 2.636 0 0 1-.916 1.65c-.501.43-1.09.66-1.708.66-.623 0-1.15-.234-1.522-.672zm5.49-11.335h3.754c1.306 0 2.364-.247 3.144-.733.658-.41 1-.932 1.105-1.69.101-.732-.057-1.244-.498-1.61-.358-.299-1.211-.654-3.234-.654H130z"></path></g><g><g></g><g clip-path="url(#g1xgi)"><path fill="#1c242b" d="M155.102 86.286h-10.7c-.63 0-1.156-.231-1.528-.675-.368-.44-.517-1.005-.43-1.633l2.277-16.42c.086-.624.387-1.191.87-1.637.5-.46 1.098-.701 1.73-.701h10.702c.605 0 1.118.229 1.483.659.364.424.512.978.427 1.597a2.547 2.547 0 0 1-.885 1.598 2.51 2.51 0 0 1-1.647.63h-8.398l-.526 3.794h7.437c.601 0 1.112.225 1.48.654.368.435.517.987.432 1.604a2.535 2.535 0 0 1-.89 1.598 2.494 2.494 0 0 1-1.643.627h-7.438l-.53 3.822h8.399c.603 0 1.116.229 1.483.66.364.425.512.98.426 1.598a2.544 2.544 0 0 1-.883 1.596 2.515 2.515 0 0 1-1.648.63"></path></g></g></g></g></g></svg> 