<?xml version="1.0" encoding="utf-8"?>
<svg xmlns="http://www.w3.org/2000/svg" xmlns:xlink="http://www.w3.org/1999/xlink" style="margin: auto; background: none; display: block; shape-rendering: auto;" width="200px" height="200px" viewBox="0 0 100 100" preserveAspectRatio="xMidYMid">
<g transform="rotate(0 50 50)">
  <rect x="47" y="24" rx="3" ry="6" width="6" height="12" fill="#41a4f5">
    <animate attributeName="opacity" values="1;0" keyTimes="0;1" dur="1.7543859649122806s" begin="-1.6081871345029237s" repeatCount="indefinite"></animate>
  </rect>
</g><g transform="rotate(30 50 50)">
  <rect x="47" y="24" rx="3" ry="6" width="6" height="12" fill="#41a4f5">
    <animate attributeName="opacity" values="1;0" keyTimes="0;1" dur="1.7543859649122806s" begin="-1.461988304093567s" repeatCount="indefinite"></animate>
  </rect>
</g><g transform="rotate(60 50 50)">
  <rect x="47" y="24" rx="3" ry="6" width="6" height="12" fill="#41a4f5">
    <animate attributeName="opacity" values="1;0" keyTimes="0;1" dur="1.7543859649122806s" begin="-1.3157894736842104s" repeatCount="indefinite"></animate>
  </rect>
</g><g transform="rotate(90 50 50)">
  <rect x="47" y="24" rx="3" ry="6" width="6" height="12" fill="#41a4f5">
    <animate attributeName="opacity" values="1;0" keyTimes="0;1" dur="1.7543859649122806s" begin="-1.1695906432748537s" repeatCount="indefinite"></animate>
  </rect>
</g><g transform="rotate(120 50 50)">
  <rect x="47" y="24" rx="3" ry="6" width="6" height="12" fill="#41a4f5">
    <animate attributeName="opacity" values="1;0" keyTimes="0;1" dur="1.7543859649122806s" begin="-1.023391812865497s" repeatCount="indefinite"></animate>
  </rect>
</g><g transform="rotate(150 50 50)">
  <rect x="47" y="24" rx="3" ry="6" width="6" height="12" fill="#41a4f5">
    <animate attributeName="opacity" values="1;0" keyTimes="0;1" dur="1.7543859649122806s" begin="-0.8771929824561403s" repeatCount="indefinite"></animate>
  </rect>
</g><g transform="rotate(180 50 50)">
  <rect x="47" y="24" rx="3" ry="6" width="6" height="12" fill="#41a4f5">
    <animate attributeName="opacity" values="1;0" keyTimes="0;1" dur="1.7543859649122806s" begin="-0.7309941520467835s" repeatCount="indefinite"></animate>
  </rect>
</g><g transform="rotate(210 50 50)">
  <rect x="47" y="24" rx="3" ry="6" width="6" height="12" fill="#41a4f5">
    <animate attributeName="opacity" values="1;0" keyTimes="0;1" dur="1.7543859649122806s" begin="-0.5847953216374269s" repeatCount="indefinite"></animate>
  </rect>
</g><g transform="rotate(240 50 50)">
  <rect x="47" y="24" rx="3" ry="6" width="6" height="12" fill="#41a4f5">
    <animate attributeName="opacity" values="1;0" keyTimes="0;1" dur="1.7543859649122806s" begin="-0.43859649122807015s" repeatCount="indefinite"></animate>
  </rect>
</g><g transform="rotate(270 50 50)">
  <rect x="47" y="24" rx="3" ry="6" width="6" height="12" fill="#41a4f5">
    <animate attributeName="opacity" values="1;0" keyTimes="0;1" dur="1.7543859649122806s" begin="-0.29239766081871343s" repeatCount="indefinite"></animate>
  </rect>
</g><g transform="rotate(300 50 50)">
  <rect x="47" y="24" rx="3" ry="6" width="6" height="12" fill="#41a4f5">
    <animate attributeName="opacity" values="1;0" keyTimes="0;1" dur="1.7543859649122806s" begin="-0.14619883040935672s" repeatCount="indefinite"></animate>
  </rect>
</g><g transform="rotate(330 50 50)">
  <rect x="47" y="24" rx="3" ry="6" width="6" height="12" fill="#41a4f5">
    <animate attributeName="opacity" values="1;0" keyTimes="0;1" dur="1.7543859649122806s" begin="0s" repeatCount="indefinite"></animate>
  </rect>
</g>
<!-- [ldio] generated by https://loading.io/ --></svg>